<svg xmlns="http://www.w3.org/2000/svg" version="1.1" xmlns:xlink="http://www.w3.org/1999/xlink" xmlns:svgjs="http://svgjs.dev/svgjs" width="1000" height="1125" viewBox="0 0 1000 1125"><g transform="matrix(1,0,0,1,0.0005762637636053114,0)"><svg viewBox="0 0 320 360" data-background-color="#ffffff" preserveAspectRatio="xMidYMid meet" height="1125" width="1000" xmlns="http://www.w3.org/2000/svg" xmlns:xlink="http://www.w3.org/1999/xlink"><defs></defs><g id="tight-bounds" transform="matrix(1,0,0,1,0.00018440440442191175,0)"><svg viewBox="0 0 320 360" height="360" width="320"><g><svg></svg></g><g><svg viewBox="0 0 320 360" height="360" width="320"><g><path d="M294.684 112.125c-8.775-10.699-25.381-16.201-43-22.006-7.56-2.498-15.357-5.097-22.985-8.235-7.695-3.173-15.256-7.257-22.613-11.172-14.952-8.033-30.41-16.336-46.105-16.336-15.661 0-31.119 8.303-46.071 16.336-7.358 3.949-14.952 8.033-22.648 11.205-7.594 3.139-15.425 5.704-22.985 8.236-17.618 5.839-34.224 11.341-42.999 22.006-11.712 14.277-11.442 35.439-11.172 57.817 0.034 3.375 0.068 6.717 0.067 10.024 0 3.308-0.034 6.649-0.101 10.024-0.27 22.411-0.54 43.54 11.172 57.851 8.775 10.666 25.381 16.167 42.966 22.006 7.56 2.498 15.357 5.097 23.019 8.235 7.695 3.173 15.256 7.223 22.579 11.172 14.986 8.067 30.444 16.37 46.105 16.37 15.695 0 31.153-8.303 46.105-16.336 7.358-3.949 14.918-8.033 22.614-11.172 7.594-3.139 15.357-5.704 22.884-8.202 17.72-5.873 34.326-11.374 43.101-22.039 11.712-14.277 11.442-35.439 11.171-57.817-0.034-3.409-0.101-6.75-0.101-10.058 0-3.308 0.034-6.649 0.101-9.991 0.371-22.479 0.641-43.641-11.104-57.918zM305.552 103.215c-15.728-19.171-45.801-23.727-71.486-34.326-22.985-9.45-46.375-28.588-74.051-28.587-27.676 0-51.066 19.137-74.052 28.587-25.719 10.598-55.758 15.155-71.486 34.326-17.078 20.791-14.311 50.121-14.311 76.785 0 26.63-2.768 55.994 14.277 76.785 15.728 19.171 45.801 23.727 71.487 34.326 22.985 9.484 46.375 28.588 74.051 28.587 27.676 0 51.066-19.103 74.051-28.587 25.719-10.598 55.758-15.155 71.486-34.326 17.045-20.791 14.277-50.121 14.277-76.785 0.068-26.664 2.835-55.994-14.243-76.785zM309.872 189.923c0.304 23.221 0.574 45.059-12.083 60.483-9.518 11.577-26.664 17.281-44.822 23.289-7.56 2.498-15.29 5.063-22.715 8.134-7.493 3.071-14.952 7.088-22.175 10.969-15.458 8.303-31.355 16.842-48.062 16.842-16.707 0-32.604-8.539-47.995-16.808-7.257-3.915-14.75-7.932-22.243-11.003-7.527-3.105-15.256-5.67-22.748-8.134-18.192-6.008-35.338-11.712-44.823-23.289-12.623-15.391-12.353-37.262-12.083-60.415 0.034-3.375 0.101-6.683 0.101-9.991 0-3.308-0.034-6.615-0.067-9.991-0.304-23.154-0.574-45.025 12.083-60.415 9.518-11.577 26.664-17.247 44.822-23.289 7.527-2.498 15.256-5.063 22.749-8.134 7.493-3.105 14.986-7.122 22.242-11.003 15.391-8.269 31.322-16.842 47.995-16.842 16.673 0 32.604 8.539 47.995 16.808 7.257 3.915 14.75 7.932 22.243 11.003 7.493 3.105 15.256 5.637 22.715 8.134 18.158 6.008 35.338 11.712 44.822 23.289 12.657 15.425 12.387 37.262 12.083 60.416-0.034 3.409-0.101 6.717-0.101 9.99 0 3.308 0.034 6.615 0.067 9.957z" fill="#0f337a" data-fill-palette-color="tertiary"></path></g><g transform="matrix(1,0,0,1,64,122.82705043474856)"><svg viewBox="0 0 192 114.34589913050289" height="114.34589913050289" width="192"><g><svg viewBox="0 0 192 114.34589913050289" height="114.34589913050289" width="192"><g><svg viewBox="0 0 192 114.34589913050289" height="114.34589913050289" width="192"><g><svg viewBox="0 0 192 114.34589913050289" height="114.34589913050289" width="192"><g><svg viewBox="0 0 192 114.34589913050289" height="114.34589913050289" width="192"><g><svg viewBox="0 0 192 70.04388714733541" height="70.04388714733541" width="192"><g transform="matrix(1,0,0,1,0,0)"><svg width="192" viewBox="0.25 -35.5 127.58999633789062 46.54999923706055" height="70.04388714733541" data-palette-color="#ffffff"><path d="M13.1-35.5Q16.6-35.5 19.28-34.38 21.95-33.25 24.15-31.05L24.15-31.05 20.5-26.85Q17.25-29.65 13.85-29.65L13.85-29.65Q11.95-29.65 10.85-28.7 9.75-27.75 9.75-26.1L9.75-26.1Q9.75-25 10.25-24.25 10.75-23.5 12-22.8 13.25-22.1 15.7-21.2L15.7-21.2Q18.9-20 20.88-18.63 22.85-17.25 23.9-15.2 24.95-13.15 24.95-10.1L24.95-10.1Q24.95-6.9 23.43-4.42 21.9-1.95 19.03-0.55 16.15 0.85 12.3 0.85L12.3 0.85Q5.05 0.85 0.25-4.05L0.25-4.05 4.15-8.4Q6-6.8 7.88-5.95 9.75-5.1 11.85-5.1L11.85-5.1Q14.15-5.1 15.4-6.3 16.65-7.5 16.65-9.5L16.65-9.5Q16.65-11.4 15.5-12.55 14.35-13.7 11.15-14.85L11.15-14.85Q5.95-16.8 3.75-19.25 1.55-21.7 1.55-25.5L1.55-25.5Q1.55-28.45 3.05-30.73 4.55-33 7.18-34.25 9.8-35.5 13.1-35.5L13.1-35.5ZM42.7-27.4Q47.1-27.4 49.32-23.75 51.55-20.1 51.55-13.35L51.55-13.35Q51.55-9.15 50.37-5.93 49.2-2.7 47.05-0.93 44.9 0.85 42 0.85L42 0.85Q38.55 0.85 36.25-1.9L36.25-1.9 36.25 10.25 28.55 11.05 28.55-26.55 35.4-26.55 35.75-23.65Q38.45-27.4 42.7-27.4L42.7-27.4ZM39.7-4.85Q43.6-4.85 43.6-13.25L43.6-13.25Q43.6-18.1 42.72-19.93 41.85-21.75 40.15-21.75L40.15-21.75Q37.9-21.75 36.25-18.8L36.25-18.8 36.25-7.05Q37.7-4.85 39.7-4.85L39.7-4.85ZM75.25-7.35Q75.25-6 75.59-5.35 75.95-4.7 76.8-4.35L76.8-4.35 75.2 0.7Q72.9 0.5 71.45-0.35 70-1.2 69.2-3L69.2-3Q66.75 0.85 62.05 0.85L62.05 0.85Q58.45 0.85 56.32-1.43 54.2-3.7 54.2-7.45L54.2-7.45Q54.2-11.8 57.12-14.1 60.05-16.4 65.59-16.4L65.59-16.4 67.7-16.4 67.7-17.65Q67.7-20 66.84-20.93 66-21.85 63.85-21.85L63.85-21.85Q61.4-21.85 57.6-20.5L57.6-20.5 55.85-25.45Q58.05-26.4 60.55-26.9 63.05-27.4 65.2-27.4L65.2-27.4Q70.34-27.4 72.8-25.1 75.25-22.8 75.25-18.1L75.25-18.1 75.25-7.35ZM64.34-4.65Q65.4-4.65 66.27-5.3 67.15-5.95 67.7-7.15L67.7-7.15 67.7-12.1 66.3-12.1Q63.95-12.1 62.85-11.13 61.75-10.15 61.75-8.1L61.75-8.1Q61.75-6.4 62.42-5.53 63.1-4.65 64.34-4.65L64.34-4.65ZM95.04-27.4Q98.14-27.4 99.92-25.33 101.69-23.25 101.69-19.65L101.69-19.65 101.69 0 93.99 0 93.99-18.6Q93.99-20.25 93.52-20.93 93.04-21.6 92.09-21.6L92.09-21.6Q91.09-21.6 90.17-20.78 89.24-19.95 88.24-18.35L88.24-18.35 88.24 0 80.54 0 80.54-26.55 87.29-26.55 87.84-23.4Q89.29-25.4 91.04-26.4 92.79-27.4 95.04-27.4L95.04-27.4ZM126.29-7.35Q126.29-6 126.64-5.35 126.99-4.7 127.84-4.35L127.84-4.35 126.24 0.7Q123.94 0.5 122.49-0.35 121.04-1.2 120.24-3L120.24-3Q117.79 0.85 113.09 0.85L113.09 0.85Q109.49 0.85 107.37-1.43 105.24-3.7 105.24-7.45L105.24-7.45Q105.24-11.8 108.17-14.1 111.09-16.4 116.64-16.4L116.64-16.4 118.74-16.4 118.74-17.65Q118.74-20 117.89-20.93 117.04-21.85 114.89-21.85L114.89-21.85Q112.44-21.85 108.64-20.5L108.64-20.5 106.89-25.45Q109.09-26.4 111.59-26.9 114.09-27.4 116.24-27.4L116.24-27.4Q121.39-27.4 123.84-25.1 126.29-22.8 126.29-18.1L126.29-18.1 126.29-7.35ZM115.39-4.65Q116.44-4.65 117.32-5.3 118.19-5.95 118.74-7.15L118.74-7.15 118.74-12.1 117.34-12.1Q114.99-12.1 113.89-11.13 112.79-10.15 112.79-8.1L112.79-8.1Q112.79-6.4 113.47-5.53 114.14-4.65 115.39-4.65L115.39-4.65Z" opacity="1" transform="matrix(1,0,0,1,0,0)" fill="#ffffff" class="undefined-text-0" data-fill-palette-color="quaternary" id="text-0"></path></svg></g></svg></g><g transform="matrix(1,0,0,1,0,86.57956784952977)"><svg viewBox="0 0 192 27.766331280973116" height="27.766331280973116" width="192"><g transform="matrix(1,0,0,1,0,0)"><svg width="192" viewBox="2.8499999046325684 -37.5 332.91998291015625 48.150001525878906" height="27.766331280973116" data-palette-color="#ffffff"><path d="M24.65-13.95Q24.65-12.8 24.55-11.6L24.55-11.6 7.75-11.6Q8.05-7.25 9.95-5.2 11.85-3.15 14.85-3.15L14.85-3.15Q16.75-3.15 18.35-3.7 19.95-4.25 21.7-5.45L21.7-5.45 23.7-2.7Q19.5 0.6 14.5 0.6L14.5 0.6Q9 0.6 5.93-3 2.85-6.6 2.85-12.9L2.85-12.9Q2.85-17 4.17-20.18 5.5-23.35 7.98-25.15 10.45-26.95 13.8-26.95L13.8-26.95Q19.05-26.95 21.85-23.5 24.65-20.05 24.65-13.95L24.65-13.95ZM20.1-15L20.1-15.3Q20.1-19.2 18.55-21.25 17-23.3 13.9-23.3L13.9-23.3Q8.25-23.3 7.75-15L7.75-15 20.1-15ZM49.75-6.15Q49.75-4.55 50.3-3.78 50.85-3 51.95-2.6L51.95-2.6 50.9 0.6Q48.85 0.35 47.6-0.55 46.35-1.45 45.75-3.35L45.75-3.35Q43.1 0.6 37.9 0.6L37.9 0.6Q34 0.6 31.75-1.6 29.5-3.8 29.5-7.35L29.5-7.35Q29.5-11.55 32.52-13.8 35.55-16.05 41.1-16.05L41.1-16.05 45.15-16.05 45.15-18Q45.15-20.8 43.8-22 42.45-23.2 39.65-23.2L39.65-23.2Q36.75-23.2 32.55-21.8L32.55-21.8 31.4-25.15Q36.3-26.95 40.5-26.95L40.5-26.95Q45.15-26.95 47.45-24.68 49.75-22.4 49.75-18.2L49.75-18.2 49.75-6.15ZM38.95-2.85Q42.9-2.85 45.15-6.95L45.15-6.95 45.15-13 41.7-13Q34.4-13 34.4-7.6L34.4-7.6Q34.4-5.25 35.55-4.05 36.7-2.85 38.95-2.85L38.95-2.85ZM66.35-26.95Q69.05-26.95 71.2-26.2 73.35-25.45 75.3-23.95L75.3-23.95 73.35-21.05Q71.55-22.2 69.92-22.75 68.3-23.3 66.5-23.3L66.5-23.3Q64.25-23.3 62.95-22.38 61.65-21.45 61.65-19.85L61.65-19.85Q61.65-18.25 62.87-17.35 64.1-16.45 67.3-15.6L67.3-15.6Q71.7-14.5 73.87-12.6 76.05-10.7 76.05-7.4L76.05-7.4Q76.05-3.5 73.02-1.45 70 0.6 65.65 0.6L65.65 0.6Q59.65 0.6 55.7-2.85L55.7-2.85 58.15-5.65Q61.5-3.1 65.55-3.1L65.55-3.1Q68.15-3.1 69.67-4.17 71.2-5.25 71.2-7.1L71.2-7.1Q71.2-8.45 70.65-9.28 70.1-10.1 68.75-10.73 67.4-11.35 64.8-12.05L64.8-12.05Q60.6-13.15 58.72-15 56.85-16.85 56.85-19.7L56.85-19.7Q56.85-21.75 58.07-23.43 59.3-25.1 61.47-26.03 63.65-26.95 66.35-26.95L66.35-26.95ZM101.89-26.35L93.09 0.15Q91.54 4.75 88.77 7.43 85.99 10.1 80.84 10.65L80.84 10.65 80.34 7.05Q82.94 6.6 84.49 5.75 86.04 4.9 86.97 3.58 87.89 2.25 88.69 0L88.69 0 87.14 0 78.29-26.35 83.19-26.35 90.24-3.35 97.14-26.35 101.89-26.35ZM140.29-13.95Q140.29-12.8 140.19-11.6L140.19-11.6 123.39-11.6Q123.69-7.25 125.59-5.2 127.49-3.15 130.49-3.15L130.49-3.15Q132.39-3.15 133.99-3.7 135.59-4.25 137.34-5.45L137.34-5.45 139.34-2.7Q135.14 0.6 130.14 0.6L130.14 0.6Q124.64 0.6 121.56-3 118.49-6.6 118.49-12.9L118.49-12.9Q118.49-17 119.81-20.18 121.14-23.35 123.61-25.15 126.09-26.95 129.44-26.95L129.44-26.95Q134.69-26.95 137.49-23.5 140.29-20.05 140.29-13.95L140.29-13.95ZM135.74-15L135.74-15.3Q135.74-19.2 134.19-21.25 132.64-23.3 129.54-23.3L129.54-23.3Q123.89-23.3 123.39-15L123.39-15 135.74-15ZM174.09-26.95Q177.34-26.95 179.29-24.78 181.24-22.6 181.24-18.9L181.24-18.9 181.24 0 176.64 0 176.64-18.25Q176.64-23.35 172.94-23.35L172.94-23.35Q170.99-23.35 169.64-22.23 168.29-21.1 166.74-18.7L166.74-18.7 166.74 0 162.14 0 162.14-18.25Q162.14-23.35 158.44-23.35L158.44-23.35Q156.44-23.35 155.09-22.2 153.74-21.05 152.24-18.7L152.24-18.7 152.24 0 147.64 0 147.64-26.35 151.59-26.35 151.99-22.5Q154.94-26.95 159.59-26.95L159.59-26.95Q162.04-26.95 163.76-25.7 165.49-24.45 166.24-22.2L166.24-22.2Q167.79-24.5 169.66-25.73 171.54-26.95 174.09-26.95L174.09-26.95ZM202.58-26.95Q207.63-26.95 209.98-23.35 212.33-19.75 212.33-13.2L212.33-13.2Q212.33-7 209.63-3.2 206.93 0.6 201.98 0.6L201.98 0.6Q197.58 0.6 195.08-2.4L195.08-2.4 195.08 10.1 190.48 10.65 190.48-26.35 194.43-26.35 194.78-22.8Q196.23-24.8 198.28-25.88 200.33-26.95 202.58-26.95L202.58-26.95ZM200.88-3.15Q207.38-3.15 207.38-13.2L207.38-13.2Q207.38-23.3 201.43-23.3L201.43-23.3Q199.48-23.3 197.88-22.15 196.28-21 195.08-19.2L195.08-19.2 195.08-6.35Q196.08-4.8 197.58-3.98 199.08-3.15 200.88-3.15L200.88-3.15ZM225.43 0.6Q222.88 0.6 221.41-0.93 219.93-2.45 219.93-5.2L219.93-5.2 219.93-36.95 224.53-37.5 224.53-5.3Q224.53-4.2 224.91-3.7 225.28-3.2 226.18-3.2L226.18-3.2Q227.13-3.2 227.88-3.5L227.88-3.5 229.08-0.3Q227.43 0.6 225.43 0.6L225.43 0.6ZM244.73-26.95Q250.28-26.95 253.35-23.25 256.43-19.55 256.43-13.2L256.43-13.2Q256.43-9.1 255.03-5.98 253.63-2.85 250.98-1.13 248.33 0.6 244.68 0.6L244.68 0.6Q239.13 0.6 236.03-3.1 232.93-6.8 232.93-13.15L232.93-13.15Q232.93-17.25 234.33-20.38 235.73-23.5 238.38-25.23 241.03-26.95 244.73-26.95L244.73-26.95ZM244.73-23.25Q237.88-23.25 237.88-13.15L237.88-13.15Q237.88-3.1 244.68-3.1L244.68-3.1Q251.48-3.1 251.48-13.2L251.48-13.2Q251.48-23.25 244.73-23.25L244.73-23.25ZM283.38-26.35L274.58 0.15Q273.03 4.75 270.25 7.43 267.48 10.1 262.33 10.65L262.33 10.65 261.83 7.05Q264.43 6.6 265.98 5.75 267.53 4.9 268.45 3.58 269.38 2.25 270.18 0L270.18 0 268.63 0 259.78-26.35 264.68-26.35 271.73-3.35 278.63-26.35 283.38-26.35ZM308.52-13.95Q308.52-12.8 308.42-11.6L308.42-11.6 291.62-11.6Q291.92-7.25 293.82-5.2 295.72-3.15 298.72-3.15L298.72-3.15Q300.62-3.15 302.22-3.7 303.82-4.25 305.57-5.45L305.57-5.45 307.57-2.7Q303.37 0.6 298.37 0.6L298.37 0.6Q292.87 0.6 289.8-3 286.72-6.6 286.72-12.9L286.72-12.9Q286.72-17 288.05-20.18 289.37-23.35 291.85-25.15 294.32-26.95 297.67-26.95L297.67-26.95Q302.92-26.95 305.72-23.5 308.52-20.05 308.52-13.95L308.52-13.95ZM303.97-15L303.97-15.3Q303.97-19.2 302.42-21.25 300.87-23.3 297.77-23.3L297.77-23.3Q292.12-23.3 291.62-15L291.62-15 303.97-15ZM335.77-13.95Q335.77-12.8 335.67-11.6L335.67-11.6 318.87-11.6Q319.17-7.25 321.07-5.2 322.97-3.15 325.97-3.15L325.97-3.15Q327.87-3.15 329.47-3.7 331.07-4.25 332.82-5.45L332.82-5.45 334.82-2.7Q330.62 0.6 325.62 0.6L325.62 0.6Q320.12 0.6 317.05-3 313.97-6.6 313.97-12.9L313.97-12.9Q313.97-17 315.3-20.18 316.62-23.35 319.1-25.15 321.57-26.95 324.92-26.95L324.92-26.95Q330.17-26.95 332.97-23.5 335.77-20.05 335.77-13.95L335.77-13.95ZM331.22-15L331.22-15.3Q331.22-19.2 329.67-21.25 328.12-23.3 325.02-23.3L325.02-23.3Q319.37-23.3 318.87-15L318.87-15 331.22-15Z" opacity="1" transform="matrix(1,0,0,1,0,0)" fill="#ffffff" class="undefined-text-1" data-fill-palette-color="quaternary" id="text-1"></path></svg></g></svg></g></svg></g></svg></g></svg></g></svg></g></svg></g></svg></g></svg><rect width="320" height="360" fill="none" stroke="none" visibility="hidden"></rect></g></svg></g></svg>